# xmcd
#
# Track frame offsets:
#	150
#	16669
#	32227
#	44968
#	61299
#	95587
#	112837
#	130203
#	147632
#	160875
#	182482
#	204760
#	226083
#	246071
#	265574
#
# Disc length: 3825
#
# Revision: 2
# Processed by: cddbd v1.5.1PL0 Copyright (c) Steve Scherf et al.
# Submitted via: ExactAudioCopy v0.90b3
# Normalized: r1:DSETVAR1
#
DISCID=c40eef0f
DTITLE=Various Artist - A Measure Of Blues II
DYEAR=1900
DGENRE=Blues
TTITLE0=Johnny "Guitar" Watson - Gangster Of Love (109 BPM)
TTITLE1=Anson Funderburgh and Sam Myers - Lookin' The World Over (117 BPM)
TTITLE2=Kelly Hunt - Wall All The Way Home (115 BPM)
TTITLE3=Aquablue - Who's Watchin' Who (124 BPM)
TTITLE4=Tams With 14 Karat Gold - Honky Tonk-Rock Me Baby (128 BPM)
TTITLE5=Deanna Bogart - Another Lonely Night (118 BPM)
TTITLE6=J.D. Cash and The Bob Kuban Brass - Triple Shot Of Rhythm and Blues (132 BPM)
TTITLE7=Sammy Mayfield - Blues By The Bushel (123 BPM)
TTITLE8=Big Joe and The Dynaflows - Ever Since The World Began (125 BPM)
TTITLE9=Lloyd Jones - Can't Get You Off My Mind (119 BPM)
TTITLE10=Mike Morgan and The Crawl - I Ain't Worried No More (103 BPM)
TTITLE11=Tri-sax-ual Soul Champs - Can't Keep Up With You (118 BPM)
TTITLE12=James Harman - Black and White (120 BPM)
TTITLE13=Maria Muldaur - Power In Music (116 BPM)
TTITLE14=Sammy Mayfield - Happy Birthday Song (110 BPM)
EXTD=
EXTT0=
EXTT1=
EXTT2=
EXTT3=
EXTT4=
EXTT5=
EXTT6=
EXTT7=
EXTT8=
EXTT9=
EXTT10=
EXTT11=
EXTT12=
EXTT13=
EXTT14=
PLAYORDER=
